<svg xmlns="http://www.w3.org/2000/svg" viewBox="0 0 32 32">
  <defs>
    <linearGradient id="mtTreeGrad" x1="0%" y1="0%" x2="100%" y2="100%">
      <stop offset="0%" stop-color="#6ee7b7"/>
      <stop offset="50%" stop-color="#34d399"/>
      <stop offset="100%" stop-color="#10b981"/>
    </linearGradient>
    <linearGradient id="mtBgGrad" x1="0%" y1="0%" x2="0%" y2="100%">
      <stop offset="0%" stop-color="#0f172a"/>
      <stop offset="100%" stop-color="#022c22"/>
    </linearGradient>
  </defs>
  <!-- Background Badge -->
  <rect width="32" height="32" rx="7" fill="url(#mtBgGrad)"/>
  <rect x="0.75" y="0.75" width="30.5" height="30.5" rx="6.25" fill="none" stroke="#10b981" stroke-width="1.5" stroke-opacity="0.8"/>
  <!-- Decision Tree Network -->
  <g stroke="url(#mtTreeGrad)" stroke-width="2" stroke-linecap="round" stroke-linejoin="round" fill="none">
    <!-- Trunk -->
    <path d="M16 26V15"/>
    <!-- Main Branches -->
    <path d="M16 19C16 19 12 15 9 15"/>
    <path d="M16 17C16 17 20 13 23 13"/>
    <!-- Sub Branches -->
    <path d="M9 15C9 15 6 13 6 10"/>
    <path d="M9 15C9 15 12 12 12 10"/>
    <path d="M23 13C23 13 20 10 20 7"/>
    <path d="M23 13C23 13 26 10 26 7"/>
  </g>
  <!-- Math Nodes (Circles) -->
  <circle cx="6" cy="10" r="2" fill="#a7f3d0"/>
  <circle cx="12" cy="10" r="2" fill="#a7f3d0"/>
  <circle cx="20" cy="7" r="2" fill="#a7f3d0"/>
  <circle cx="26" cy="7" r="2" fill="#a7f3d0"/>
  <circle cx="16" cy="6" r="1.5" fill="#ffffff"/>
</svg>